ply
format ascii 1.0
comment Added camera center coordinates
element vertex 1050
property float x
property float y
property float z
property uchar red
property uchar green
property uchar blue
end_header
-4162455.15836 4093068.85082 2596073.77679 255 0 0
-4162547.28689 4093120.22368 2595857.42365 255 0 0
-4162593.31724 4093142.48111 2595746.89810 255 0 0
-4162629.14620 4093177.58056 2595643.49728 255 0 0
-4162659.71453 4093217.11299 2595534.99439 255 0 0
-4162699.36307 4093256.49988 2595424.28631 255 0 0
-4162737.64285 4093286.14531 2595319.09431 255 0 0
-4162774.55175 4093321.48040 2595213.18629 255 0 0
-4162815.00941 4093359.22278 2595100.85866 255 0 0
-4162847.43802 4093396.23117 2594989.60034 255 0 0
-4162882.74939 4093436.36501 2594875.93433 255 0 0
-4162920.82961 4093468.70510 2594765.03922 255 0 0
-4162954.75112 4093507.94722 2594655.98377 255 0 0
-4162989.38335 4093548.88103 2594545.93160 255 0 0
-4163019.90645 4093593.65393 2594437.73729 255 0 0
-4163050.37371 4093635.14470 2594325.51926 255 0 0
-4163087.46016 4093671.38910 2594212.85419 255 0 0
-4163126.74930 4093702.10212 2594101.59046 255 0 0
-4163156.15823 4093745.99879 2593992.63548 255 0 0
-4163201.57653 4093848.82406 2593774.67136 255 0 0
-4163176.94315 4093797.08425 2593886.14239 255 0 0
-4163231.14676 4093890.93663 2593659.28021 255 0 0
-4163269.08622 4093925.07877 2593547.99205 255 0 0
-4163300.84205 4093958.31316 2593431.97306 255 0 0
-4163326.82943 4094008.76939 2593324.80727 255 0 0
-4163348.16145 4094060.03432 2593209.75894 255 0 0
-4163365.21921 4094118.97645 2593102.83260 255 0 0
-4163398.44360 4094221.35520 2592889.45486 255 0 0
-4163380.30667 4094176.17760 2593002.40713 255 0 0
-4163425.80980 4094278.00517 2592780.76970 255 0 0
-4163450.79175 4094314.60421 2592661.32055 255 0 0
-4163486.93913 4094425.00730 2592445.64190 255 0 0
-4163474.72628 4094368.20061 2592548.26524 255 0 0
-4163500.56726 4094486.54960 2592337.58675 255 0 0
-4163513.69903 4094534.61114 2592226.88538 255 0 0
-4163529.11564 4094585.56225 2592112.11877 255 0 0
-4163549.07327 4094632.66505 2592007.36713 255 0 0
-4163568.26739 4094681.01490 2591893.90215 255 0 0
-4163584.21956 4094735.26536 2591779.86537 255 0 0
-4163592.68325 4094795.23264 2591670.98038 255 0 0
-4163599.37907 4094860.53756 2591553.39858 255 0 0
-4163602.17051 4094922.79924 2591448.76528 255 0 0
-4163606.36762 4094989.67921 2591340.08542 255 0 0
-4163614.13435 4095055.49159 2591230.41352 255 0 0
-4163620.91630 4095117.57029 2591122.09415 255 0 0
-4163636.58421 4095161.89704 2591004.88415 255 0 0
-4163648.95292 4095222.62207 2590896.46285 255 0 0
-4163654.89535 4095284.81009 2590793.33767 255 0 0
-4163655.58766 4095347.39413 2590687.14410 255 0 0
-4163658.60443 4095409.10252 2590577.82185 255 0 0
-4163667.01923 4095475.85054 2590470.29307 255 0 0
-4163676.77927 4095533.29196 2590361.48038 255 0 0
-4163688.26749 4095579.98550 2590245.38409 255 0 0
-4163691.29981 4095641.26603 2590135.01722 255 0 0
-4163687.88716 4095715.76127 2590034.67714 255 0 0
-4163681.96307 4095855.47371 2589822.04620 255 0 0
-4163685.48289 4095778.98342 2589928.56056 255 0 0
-4163678.18455 4095926.64801 2589718.04690 255 0 0
-4163675.72423 4095994.20983 2589615.57086 255 0 0
-4163674.93699 4096058.69085 2589515.43844 255 0 0
-4163670.56869 4096126.15682 2589406.43526 255 0 0
-4163661.63097 4096199.73371 2589307.22963 255 0 0
-4163652.15553 4096275.12935 2589207.57324 255 0 0
-4163643.28892 4096346.41392 2589106.66266 255 0 0
-4163639.11485 4096406.83932 2588998.76171 255 0 0
-4163631.51179 4096477.31408 2588893.12742 255 0 0
-4163616.94588 4096552.77638 2588794.14189 255 0 0
-4163594.07812 4096634.29338 2588703.24850 255 0 0
-4163580.21081 4096712.03694 2588601.86055 255 0 0
-4163573.98110 4096779.51494 2588499.18841 255 0 0
-4163570.38694 4096843.84605 2588390.31578 255 0 0
-4163561.14640 4096914.01771 2588292.09826 255 0 0
-4163550.65109 4096990.02930 2588198.86786 255 0 0
-4163527.12907 4097063.86914 2588097.22233 255 0 0
-4163506.53038 4097151.97699 2588012.56877 255 0 0
-4163480.77750 4097229.23335 2587921.96981 255 0 0
-4163463.29375 4097309.23324 2587828.13227 255 0 0
-4163452.64144 4097378.25776 2587725.55424 255 0 0
-4163439.12890 4097442.44501 2587619.06974 255 0 0
-4163419.31810 4097529.94700 2587530.97595 255 0 0
-4163392.72223 4097617.71011 2587442.60321 255 0 0
-4163365.15081 4097696.37979 2587347.71211 255 0 0
-4163332.47526 4097789.97730 2587270.38056 255 0 0
-4163305.41642 4097876.74112 2587183.30724 255 0 0
-4163281.47732 4097957.09961 2587094.24113 255 0 0
-4163258.35921 4098033.30166 2586997.64432 255 0 0
-4163235.27646 4098109.50726 2586905.83192 255 0 0
-4163215.09156 4098186.89074 2586813.50670 255 0 0
-4163195.13678 4098263.57214 2586726.00836 255 0 0
-4163172.16112 4098342.46657 2586636.10682 255 0 0
-4163144.35270 4098420.05947 2586546.39127 255 0 0
-4163094.81687 4098585.80699 2586369.73212 255 0 0
-4163119.14685 4098505.33144 2586458.93652 255 0 0
-4163066.94519 4098666.62463 2586283.77060 255 0 0
-4163040.08035 4098741.93992 2586201.51207 255 0 0
-4162968.36817 4098921.32028 2586042.74156 255 0 0
-4163007.44805 4098830.13264 2586118.92954 255 0 0
-4162929.76671 4099015.28449 2585966.69910 255 0 0
-4162891.83867 4099104.52205 2585890.46071 255 0 0
-4162830.03205 4099274.40997 2585721.64476 255 0 0
-4162864.64864 4099186.35601 2585800.81078 255 0 0
-4162785.88640 4099365.63185 2585654.13589 255 0 0
-4162747.47766 4099456.80941 2585575.86985 255 0 0
-4162668.01130 4099636.60632 2585425.58281 255 0 0
-4162707.05454 4099546.32172 2585499.35127 255 0 0
-4162628.96452 4099727.07780 2585349.55932 255 0 0
-4162590.39378 4099813.62363 2585271.48634 255 0 0
-4162555.77892 4099901.46992 2585195.23085 255 0 0
-4162521.89583 4099984.60468 2585109.08552 255 0 0
-4162483.68866 4100069.96093 2585029.06043 255 0 0
-4162438.35203 4100167.46529 2584961.90153 255 0 0
-4162335.86826 4100359.89400 2584834.87242 255 0 0
-4162382.86543 4100262.19796 2584897.97663 255 0 0
-4162293.29974 4100447.88475 2584756.74911 255 0 0
-4162252.75992 4100536.42154 2584683.63147 255 0 0
-4162210.55465 4100626.57993 2584611.70531 255 0 0
-4162162.99386 4100715.62622 2584542.49160 255 0 0
-4162116.04059 4100810.20217 2584476.60172 255 0 0
-4162074.86997 4100896.82814 2584405.52418 255 0 0
-4162032.22334 4100985.80905 2584332.09141 255 0 0
-4161980.23364 4101082.95657 2584273.81285 255 0 0
-4161923.08372 4101176.80771 2584217.99231 255 0 0
-4161876.64714 4101269.74649 2584151.71348 255 0 0
-4161829.39222 4101362.05057 2584082.34396 255 0 0
-4161778.37567 4101455.07057 2584017.30897 255 0 0
-4161729.92703 4101545.58201 2583955.12162 255 0 0
-4161677.55850 4101638.95518 2583894.05053 255 0 0
-4161624.15862 4101737.08197 2583841.27047 255 0 0
-4161564.05190 4101830.86255 2583791.71104 255 0 0
-4161510.10603 4101926.60866 2583735.57964 255 0 0
-4161463.91162 4102016.14839 2583668.51201 255 0 0
-4161364.17339 4102195.41998 2583540.29726 255 0 0
-4161416.31219 4102104.10402 2583601.85887 255 0 0
-4161303.95660 4102296.08023 2583494.80658 255 0 0
-4161244.28717 4102392.30735 2583450.40844 255 0 0
-4161126.70562 4102583.87594 2583351.85040 255 0 0
-4161183.15205 4102488.97625 2583400.11903 255 0 0
-4161075.22427 4102674.50390 2583289.37071 255 0 0
-4161020.23871 4102766.25921 2583232.99974 255 0 0
-4160889.77233 4102964.06578 2583156.62130 255 0 0
-4160954.66245 4102865.00636 2583190.61170 255 0 0
-4160825.58067 4103061.89176 2583110.10563 255 0 0
-4160768.49516 4103157.53614 2583061.42850 255 0 0
-4160709.97715 4103254.61768 2583006.79658 255 0 0
-4160652.29170 4103346.84157 2582951.48522 255 0 0
-4160587.71927 4103444.88656 2582911.71586 255 0 0
-4160524.64052 4103540.86429 2582875.84035 255 0 0
-4160463.18797 4103636.11636 2582837.51385 255 0 0
-4160402.59060 4103730.98569 2582788.43678 255 0 0
-4160341.42791 4103825.67668 2582738.01726 255 0 0
-4160277.12236 4103928.14990 2582699.68106 255 0 0
-4160204.21560 4104024.86916 2582667.92825 255 0 0
-4160140.78096 4104120.63192 2582637.14383 255 0 0
-4160079.51630 4104212.06650 2582583.37190 255 0 0
-4160021.03051 4104309.72932 2582537.16448 255 0 0
-4159949.65362 4104407.41377 2582511.97182 255 0 0
-4159880.61611 4104505.21993 2582480.48647 255 0 0
-4159813.67769 4104606.49296 2582447.57283 255 0 0
-4159746.56082 4104699.65198 2582401.03814 255 0 0
-4159685.31348 4104794.34441 2582363.99402 255 0 0
-4159613.30458 4104892.27916 2582336.79425 255 0 0
-4159544.52543 4104983.61148 2582319.69644 255 0 0
-4159468.53757 4105079.04071 2582304.84075 255 0 0
-4159336.47084 4105268.22771 2582226.78949 255 0 0
-4159401.67248 4105172.46165 2582267.94022 255 0 0
-4159266.71343 4105366.31532 2582195.33342 255 0 0
-4159200.41726 4105459.67710 2582162.20843 255 0 0
-4159049.86753 4105651.02299 2582128.11536 255 0 0
-4159129.50305 4105556.29179 2582138.22970 255 0 0
-4158971.94277 4105745.76900 2582121.49888 255 0 0
-4158894.44042 4105846.15658 2582109.82771 255 0 0
-4158750.69626 4106033.63958 2582055.33969 255 0 0
-4158819.14882 4105942.46383 2582088.59071 255 0 0
-4158679.70852 4106131.81267 2582033.38538 255 0 0
-4158604.11881 4106229.23228 2582013.48143 255 0 0
-4158524.81594 4106324.58075 2581997.98645 255 0 0
-4158451.02676 4106418.96964 2581983.61517 255 0 0
-4158377.94409 4106512.52997 2581958.56545 255 0 0
-4158306.44342 4106608.02379 2581937.92334 255 0 0
-4158231.15116 4106706.20453 2581930.60773 255 0 0
-4158152.14332 4106794.30264 2581921.89151 255 0 0
-4158079.75576 4106889.60475 2581899.69441 255 0 0
-4158008.72890 4106985.38419 2581877.11207 255 0 0
-4157938.38076 4107077.96760 2581841.21462 255 0 0
-4157864.60855 4107174.05412 2581826.74567 255 0 0
-4157783.00185 4107268.82149 2581822.31144 255 0 0
-4157702.34351 4107360.25672 2581818.28355 255 0 0
-4157539.24149 4107548.15762 2581823.47226 255 0 0
-4157620.62532 4107454.34993 2581820.48283 255 0 0
-4157458.31485 4107643.09237 2581815.53686 255 0 0
-4157378.79649 4107737.35075 2581804.88665 255 0 0
-4157212.67409 4107921.97693 2581812.50668 255 0 0
-4157294.59628 4107828.91480 2581803.71297 255 0 0
-4157133.76370 4108010.11952 2581818.92273 255 0 0
-4157053.49835 4108101.63215 2581821.77019 255 0 0
-4156899.59660 4108289.54263 2581803.70780 255 0 0
-4156977.55099 4108194.45657 2581811.33368 255 0 0
-4156816.67975 4108382.96918 2581797.03051 255 0 0
-4156731.10646 4108473.57176 2581807.51935 255 0 0
-4156565.91557 4108653.96355 2581824.15540 255 0 0
-4156644.83338 4108561.55575 2581823.57193 255 0 0
-4156487.07665 4108742.77380 2581819.44148 255 0 0
-4156408.54969 4108834.24482 2581821.88479 255 0 0
-4156324.53539 4108922.95767 2581836.03937 255 0 0
-4156241.00777 4109014.26246 2581849.18423 255 0 0
-4156155.16635 4109103.85465 2581854.86988 255 0 0
-4156071.86451 4109192.83127 2581857.11287 255 0 0
-4155988.64354 4109285.74794 2581856.60812 255 0 0
-4155906.93401 4109373.99836 2581867.38901 255 0 0
-4155819.79425 4109460.58577 2581880.90438 255 0 0
-4155735.43462 4109546.53325 2581899.76338 255 0 0
-4155653.04843 4109631.70214 2581918.23993 255 0 0
-4155567.05039 4109714.75902 2581934.84883 255 0 0
-4155482.33544 4109800.71462 2581958.49012 255 0 0
-4155397.22119 4109884.04984 2581983.43902 255 0 0
-4155313.18698 4109968.64534 2582002.21237 255 0 0
-4155228.51704 4110056.70601 2582012.65177 255 0 0
-4155145.60863 4110146.05320 2582019.90380 255 0 0
-4155057.18595 4110233.82284 2582022.34861 255 0 0
-4154972.44622 4110318.53200 2582041.39014 255 0 0
-4154884.80402 4110400.82069 2582068.64295 255 0 0
-4154797.93728 4110483.94131 2582099.35025 255 0 0
-4154705.90797 4110563.31312 2582127.88017 255 0 0
-4154620.77058 4110641.22709 2582163.72000 255 0 0
-4154537.31602 4110722.36081 2582193.57515 255 0 0
-4142471.29738 4108434.20779 2603874.54390 255 0 0
-4154449.04757 4110804.55569 2582211.22751 255 0 0
-4142534.83162 4108369.32457 2603910.34091 255 0 0
-4154365.22308 4110888.92993 2582231.80383 255 0 0
-4142573.60293 4108296.86465 2603941.72184 255 0 0
-4154282.31823 4110962.47304 2582258.64865 255 0 0
-4142614.03434 4108220.93727 2603986.40394 255 0 0
-4154192.01639 4111045.09885 2582286.32703 255 0 0
-4142657.58962 4108141.81672 2604022.61711 255 0 0
-4154105.05643 4111127.67004 2582309.15129 255 0 0
-4142698.45219 4108060.41900 2604057.95916 255 0 0
-4154018.21359 4111209.91671 2582330.59129 255 0 0
-4142753.38534 4107985.60752 2604092.98083 255 0 0
-4153935.22533 4111291.48194 2582361.67300 255 0 0
-4142796.54790 4107906.32932 2604127.88766 255 0 0
-4153843.86945 4111368.71593 2582390.43775 255 0 0
-4142887.09804 4107750.68633 2604208.15144 255 0 0
-4153754.27591 4111447.98813 2582421.30992 255 0 0
-4142849.60960 4107833.03370 2604159.93149 255 0 0
-4153666.68386 4111526.18133 2582460.57723 255 0 0
-4142923.78362 4107688.18616 2604247.77196 255 0 0
-4153576.54076 4111598.36811 2582512.42379 255 0 0
-4142956.57011 4107601.94623 2604301.96832 255 0 0
-4153485.65319 4111665.69294 2582566.94544 255 0 0
-4143015.21457 4107442.14427 2604395.20330 255 0 0
-4153394.98295 4111745.00964 2582603.24209 255 0 0
-4142985.47554 4107522.60863 2604346.60228 255 0 0
-4153306.79864 4111825.33095 2582636.40157 255 0 0
-4143047.38670 4107369.71453 2604439.25810 255 0 0
-4153217.55662 4111902.86234 2582665.62710 255 0 0
-4143087.12385 4107291.37187 2604480.34909 255 0 0
-4153130.36608 4111982.10849 2582700.46491 255 0 0
-4143187.04545 4107150.79387 2604543.26847 255 0 0
-4153041.41395 4112053.01433 2582745.61111 255 0 0
-4143251.96761 4107087.46257 2604564.75500 255 0 0
-4152948.01421 4112124.05072 2582788.81138 255 0 0
-4143139.11329 4107221.36068 2604517.01643 255 0 0
-4152858.88147 4112200.74314 2582832.38408 255 0 0
-4143307.40553 4107014.82975 2604586.27515 255 0 0
-4152770.23547 4112275.05767 2582867.22609 255 0 0
-4143360.06589 4106946.99278 2604617.20829 255 0 0
-4152679.12460 4112352.35737 2582902.98224 255 0 0
-4143400.26249 4106873.83704 2604653.44288 255 0 0
-4152592.52648 4112420.32286 2582947.55611 255 0 0
-4143446.92178 4106803.64750 2604689.13455 255 0 0
-4152502.93409 4112487.47332 2582999.29793 255 0 0
-4143512.56445 4106741.72690 2604719.85513 255 0 0
-4152413.70248 4112558.30810 2583043.73618 255 0 0
-4143575.69081 4106672.71422 2604742.51887 255 0 0
-4152324.51998 4112633.16292 2583084.41089 255 0 0
-4143683.11977 4106522.88772 2604787.99972 255 0 0
-4152235.12809 4112704.05501 2583120.20298 255 0 0
-4143636.36117 4106597.95199 2604764.33198 255 0 0
-4152145.03659 4112775.70286 2583166.37633 255 0 0
-4142755.99638 4115443.12031 2594188.81022 255 0 0
-4142722.66213 4115410.03338 2594290.48179 255 0 0
-4142681.94421 4115381.20771 2594389.18970 255 0 0
-4142637.77573 4115359.17344 2594487.03881 255 0 0
-4142600.52769 4115328.88238 2594586.68665 255 0 0
-4142570.73709 4115291.16480 2594689.03217 255 0 0
-4142541.41949 4115252.01228 2594791.75234 255 0 0
-4142505.78454 4115213.77391 2594893.72710 255 0 0
-4142472.41345 4115179.44318 2594994.76988 255 0 0
-4142435.18491 4115147.20049 2595093.01711 255 0 0
-4142400.08253 4115111.90957 2595192.55061 255 0 0
-4142372.96305 4115072.79313 2595292.93644 255 0 0
-4142347.78252 4115030.63715 2595392.10669 255 0 0
-4142311.25773 4114993.60524 2595489.40346 255 0 0
-4142265.86159 4114962.72262 2595584.59511 255 0 0
-4142231.67993 4114933.85871 2595683.47335 255 0 0
-4142199.86438 4114896.54526 2595781.72319 255 0 0
-4142173.64483 4114853.61055 2595881.92045 255 0 0
-4142154.80693 4114810.28918 2595979.80935 255 0 0
-4142097.16999 4114724.80841 2596172.75719 255 0 0
-4142126.01126 4114768.22782 2596074.31141 255 0 0
-4142074.55258 4114685.87337 2596269.59297 255 0 0
-4142043.74531 4114642.81624 2596368.16293 255 0 0
-4142017.73363 4114600.92315 2596463.00209 255 0 0
-4142002.35281 4114554.85231 2596562.18172 255 0 0
-4141982.79827 4114503.14165 2596656.40858 255 0 0
-4141971.86134 4114451.97950 2596749.58994 255 0 0
-4141933.90138 4114355.93594 2596941.16266 255 0 0
-4141954.18391 4114401.68118 2596846.01839 255 0 0
-4141894.99044 4114263.15174 2597129.89449 255 0 0
-4141915.60162 4114307.61020 2597036.98299 255 0 0
-4141868.57615 4114219.09641 2597224.97824 255 0 0
-4141841.39095 4114173.11451 2597321.73742 255 0 0
-4141832.56679 4114119.12083 2597418.80237 255 0 0
-4141826.54633 4114060.46118 2597510.17422 255 0 0
-4141814.70517 4114005.16194 2597603.81709 255 0 0
-4141794.87036 4113954.94857 2597698.61055 255 0 0
-4141757.66040 4113859.97460 2597887.32456 255 0 0
-4141775.60752 4113907.69002 2597791.06287 255 0 0
-4141729.73016 4113754.67712 2598068.82929 255 0 0
-4141748.39260 4113808.69947 2597978.15905 255 0 0
-4141727.01200 4113699.67686 2598160.27977 255 0 0
-4141719.58898 4113646.84506 2598249.33084 255 0 0
-4141708.17247 4113594.59830 2598342.57701 255 0 0
-4141702.45248 4113534.98787 2598430.47323 255 0 0
-4141699.41331 4113475.72941 2598522.57222 255 0 0
-4141690.81016 4113423.68838 2598607.65826 255 0 0
-4141680.51554 4113370.04237 2598695.10005 255 0 0
-4141671.26832 4113319.31317 2598786.04899 255 0 0
-4141656.46881 4113267.17738 2598873.47295 255 0 0
-4141647.80104 4113211.45579 2598966.80822 255 0 0
-4141645.95187 4113151.02661 2599055.16040 255 0 0
-4141651.92690 4113083.99403 2599144.80859 255 0 0
-4141665.52658 4113018.59078 2599226.86644 255 0 0
-4141661.78750 4112957.27068 2599314.68744 255 0 0
-4141649.25216 4112902.12252 2599407.87927 255 0 0
-4141645.07424 4112843.48046 2599496.95573 255 0 0
-4141652.31876 4112781.06968 2599581.36376 255 0 0
-4141665.29522 4112711.89540 2599661.10600 255 0 0
-4141666.73369 4112646.41953 2599744.26786 255 0 0
-4141668.46382 4112583.83345 2599830.25042 255 0 0
-4141667.59124 4112525.74257 2599914.11921 255 0 0
-4141671.71064 4112463.75652 2600001.82830 255 0 0
-4141676.69711 4112403.90828 2600084.82116 255 0 0
-4141676.89111 4112347.60659 2600169.67202 255 0 0
-4141665.53839 4112228.86133 2600342.83227 255 0 0
-4141669.16107 4112288.80344 2600256.81051 255 0 0
-4141679.62559 4112161.65552 2600425.72575 255 0 0
-4142319.66676 4109967.21875 2602740.65777 255 0 0
-4142342.69367 4109893.88487 2602813.38519 255 0 0
-4142367.31082 4109822.87499 2602882.07778 255 0 0
-4142393.14859 4109749.61740 2602950.35437 255 0 0
-4142424.91888 4109677.47915 2603013.63934 255 0 0
-4142457.82898 4109599.08543 2603077.25447 255 0 0
-4142493.25499 4109521.60732 2603135.50550 255 0 0
-4142529.13587 4109446.75039 2603197.25573 255 0 0
-4142571.40529 4109372.74806 2603257.79722 255 0 0
-4142603.73052 4109294.96359 2603319.49328 255 0 0
-4142640.45485 4109220.91072 2603380.57761 255 0 0
-4142705.15649 4109066.90537 2603503.14972 255 0 0
-4142666.13752 4109142.64834 2603444.72515 255 0 0
-4142743.33807 4108992.49131 2603560.17224 255 0 0
-4142782.43947 4108921.18826 2603610.11639 255 0 0
-4142822.50894 4108843.59693 2603665.66120 255 0 0
-4143391.23751 4107822.30516 2604349.55196 255 0 0
-4143340.90342 4107904.77613 2604300.18532 255 0 0
-4143295.61518 4107987.52837 2604252.52264 255 0 0
-4143242.26449 4108068.60887 2604203.83840 255 0 0
-4143154.28643 4108223.59981 2604102.20714 255 0 0
-4143199.87430 4108145.98617 2604152.07180 255 0 0
-4143105.85836 4108304.52673 2604051.97183 255 0 0
-4143062.67034 4108387.21278 2604001.20105 255 0 0
-4143015.48187 4108463.61118 2603948.94426 255 0 0
-4142978.65387 4108538.20785 2603892.41560 255 0 0
-4142947.27158 4108613.17847 2603830.43095 255 0 0
-4142906.35871 4108688.05774 2603774.75760 255 0 0
-4142863.91193 4108765.65602 2603717.50013 255 0 0
-4142290.01828 4110040.00047 2602675.68316 255 0 0
-4142257.26272 4110116.34670 2602612.40287 255 0 0
-4142224.84441 4110194.12756 2602545.38354 255 0 0
-4142189.40468 4110269.19028 2602482.52846 255 0 0
-4142157.98337 4110345.93232 2602413.94170 255 0 0
-4142132.01142 4110421.19638 2602342.50939 255 0 0
-4142108.25504 4110494.50545 2602272.14882 255 0 0
-4142078.91545 4110567.46852 2602203.80089 255 0 0
-4142047.61692 4110641.14545 2602136.41705 255 0 0
-4142022.07585 4110718.23388 2602060.64079 255 0 0
-4142000.55783 4110790.15013 2601986.04278 255 0 0
-4141982.69381 4110861.61129 2601912.32096 255 0 0
-4141964.00776 4110931.15276 2601834.64020 255 0 0
-4141944.87360 4110997.91792 2601759.62408 255 0 0
-4141936.44292 4111064.30145 2601680.62684 255 0 0
-4141907.14541 4111201.13848 2601523.23195 255 0 0
-4141923.25271 4111134.06007 2601600.38662 255 0 0
-4141849.03569 4111344.95222 2601380.61928 255 0 0
-4141883.08180 4111272.04555 2601450.10621 255 0 0
-4141811.55871 4111485.47621 2601231.58680 255 0 0
-4141829.06523 4111416.59711 2601307.76622 255 0 0
-4141798.24389 4111616.63035 2601066.73292 255 0 0
-4141802.10747 4111552.31789 2601148.34583 255 0 0
-4141796.32629 4111676.90584 2600981.65134 255 0 0
-4141789.16524 4111739.64837 2600897.50402 255 0 0
-4141766.50833 4111809.78323 2600821.62507 255 0 0
-4141745.06559 4111882.56318 2600744.25553 255 0 0
-4141733.28843 4111952.32003 2600661.61103 255 0 0
-4141718.97437 4112018.65745 2600583.61973 255 0 0
-4141700.24865 4112088.94000 2600502.28755 255 0 0
-4142791.19005 4115479.29837 2594085.71656 255 0 0
-4142861.88907 4115548.42833 2593879.05544 255 0 0
-4142823.77741 4115514.37609 2593980.24067 255 0 0
-4142959.10658 4115588.93143 2593680.24674 255 0 0
-4142906.98542 4115569.62336 2593779.40210 255 0 0
-4143002.11029 4115613.46649 2593579.60064 255 0 0
-4143046.87986 4115636.64525 2593479.53742 255 0 0
-4143092.00977 4115659.85214 2593379.69298 255 0 0
-4143138.47070 4115684.43882 2593279.93655 255 0 0
-4143181.91488 4115705.89866 2593178.26394 255 0 0
-4143227.10418 4115728.03136 2593076.75010 255 0 0
-4143312.65673 4115781.06598 2592869.39342 255 0 0
-4143270.61708 4115756.67250 2592974.90734 255 0 0
-4143363.68572 4115803.02193 2592769.01113 255 0 0
-4143408.13600 4115820.91892 2592666.44469 255 0 0
-4143513.40933 4115853.25215 2592469.76112 255 0 0
-4143459.57266 4115838.65676 2592568.86074 255 0 0
-4143566.71206 4115865.06594 2592367.98525 255 0 0
-4143630.04286 4115874.15959 2592272.75100 255 0 0
-4143685.34135 4115884.90119 2592176.16165 255 0 0
-4143739.23943 4115899.95209 2592075.33110 255 0 0
-4143779.66953 4115915.61954 2591980.72260 255 0 0
-4143835.82385 4115925.92983 2591882.09026 255 0 0
-4143888.47225 4115932.24916 2591780.60114 255 0 0
-4143952.39728 4115941.68943 2591687.93228 255 0 0
-4144009.89208 4115955.74347 2591591.91609 255 0 0
-4144058.25476 4115976.10999 2591490.61880 255 0 0
-4144149.47115 4116013.75222 2591277.21371 255 0 0
-4144096.38166 4115996.69903 2591379.41399 255 0 0
-4144210.20446 4116016.30738 2591176.58617 255 0 0
-4144278.59261 4116016.92513 2591086.58121 255 0 0
-4144336.02614 4116019.90508 2590984.43396 255 0 0
-4144399.20331 4116021.34639 2590887.19982 255 0 0
-4144457.12802 4116030.45799 2590790.49903 255 0 0
-4144521.48510 4116035.91121 2590691.81388 255 0 0
-4144583.15648 4116032.05398 2590593.61295 255 0 0
-4144645.32348 4116034.49380 2590496.48780 255 0 0
-4144709.50280 4116031.56678 2590403.24929 255 0 0
-4144770.48976 4116033.68026 2590303.97536 255 0 0
-4144828.12688 4116039.94702 2590200.54725 255 0 0
-4144887.98207 4116041.72875 2590101.20036 255 0 0
-4144954.12537 4116039.18708 2589999.99374 255 0 0
-4145029.02698 4116030.87404 2589910.36226 255 0 0
-4145095.09699 4116022.58152 2589814.50947 255 0 0
-4145167.95811 4116014.82347 2589723.18062 255 0 0
-4145230.78847 4116017.04256 2589623.09880 255 0 0
-4145286.47118 4116023.82868 2589517.57745 255 0 0
-4145345.59017 4116024.56363 2589411.10809 255 0 0
-4145418.42843 4116010.20670 2589319.47582 255 0 0
-4145494.36027 4115993.82946 2589235.13041 255 0 0
-4145566.23578 4115979.52236 2589143.67873 255 0 0
-4145641.97261 4115967.45432 2589053.63724 255 0 0
-4145707.19499 4115958.22794 2588956.23615 255 0 0
-4145769.41581 4115953.18826 2588855.77051 255 0 0
-4145840.14806 4115944.65203 2588761.03911 255 0 0
-4145908.82734 4115932.64363 2588666.11300 255 0 0
-4145979.80344 4115920.87049 2588568.26124 255 0 0
-4146057.47804 4115904.13731 2588475.04886 255 0 0
-4146131.04328 4115890.23726 2588380.83477 255 0 0
-4146207.62943 4115871.76241 2588290.79487 255 0 0
-4146283.21276 4115847.90340 2588206.43695 255 0 0
-4146352.63433 4115830.97374 2588114.82054 255 0 0
-4146421.50579 4115819.12404 2588021.94226 255 0 0
-4146492.92747 4115801.07758 2587929.09078 255 0 0
-4146569.37063 4115783.18901 2587835.78761 255 0 0
-4146645.68570 4115763.33231 2587741.59504 255 0 0
-4146723.58090 4115737.21604 2587657.25303 255 0 0
-4146810.97369 4115702.59627 2587579.48906 255 0 0
-4146890.11745 4115673.39754 2587501.37466 255 0 0
-4146967.19269 4115648.29470 2587414.86331 255 0 0
-4147037.35735 4115630.12811 2587324.46820 255 0 0
-4147111.21311 4115607.52797 2587235.40050 255 0 0
-4147187.86708 4115578.20349 2587154.44134 255 0 0
-4147267.78040 4115546.08124 2587071.47304 255 0 0
-4147356.72925 4115515.38268 2586994.10311 255 0 0
-4147429.81680 4115488.26996 2586904.05644 255 0 0
-4147507.13474 4115464.04596 2586818.14436 255 0 0
-4147585.73541 4115436.27849 2586732.97977 255 0 0
-4147663.78277 4115406.47134 2586646.13769 255 0 0
-4147747.60938 4115372.97635 2586563.71044 255 0 0
-4147828.52892 4115341.63998 2586481.22880 255 0 0
-4147906.92022 4115315.88994 2586394.06855 255 0 0
-4147984.18346 4115288.73441 2586308.17257 255 0 0
-4148071.80437 4115255.08693 2586223.78070 255 0 0
-4148149.45560 4115215.80064 2586146.71580 255 0 0
-4148237.82974 4115169.39564 2586071.57362 255 0 0
-4148319.65161 4115129.29419 2585998.49111 255 0 0
-4148398.84767 4115093.35674 2585918.58877 255 0 0
-4148475.94293 4115066.72461 2585846.22156 255 0 0
-4148557.51814 4115029.41773 2585760.70057 255 0 0
-4148641.21523 4114993.43539 2585683.49329 255 0 0
-4148725.41892 4114947.82905 2585617.43213 255 0 0
-4148811.17652 4114900.02418 2585548.71768 255 0 0
-4148901.18430 4114850.71569 2585484.73032 255 0 0
-4148989.61506 4114800.19766 2585421.16774 255 0 0
-4149075.99285 4114756.58707 2585345.12354 255 0 0
-4149151.79433 4114721.54487 2585257.75732 255 0 0
-4149323.08008 4114640.58453 2585104.11398 255 0 0
-4149241.18118 4114677.78150 2585183.04248 255 0 0
-4149408.43245 4114592.55534 2585026.52500 255 0 0
-4149496.23023 4114544.17867 2584953.49426 255 0 0
-4149674.23795 4114439.24780 2584827.90951 255 0 0
-4149586.39639 4114491.79896 2584891.48667 255 0 0
-4145235.08273 4104078.43911 2605947.66307 255 0 0
-4145274.19936 4103999.35842 2605982.86069 255 0 0
-4145334.00508 4103928.52070 2606014.22502 255 0 0
-4145412.90814 4103769.74859 2606093.67677 255 0 0
-4145376.19281 4103850.21451 2606048.17318 255 0 0
-4145450.26635 4103695.27889 2606136.42375 255 0 0
-4145529.33980 4103537.52622 2606221.29907 255 0 0
-4145585.24491 4103468.34574 2606252.23318 255 0 0
-4145483.38156 4103614.77616 2606180.77447 255 0 0
-4145631.52823 4103399.15645 2606288.76529 255 0 0
-4145740.69651 4103255.17797 2606347.73026 255 0 0
-4145783.70245 4103177.88721 2606376.29109 255 0 0
-4145686.81673 4103327.44420 2606316.42086 255 0 0
-4145822.51233 4103099.41903 2606418.66709 255 0 0
-4145908.04167 4102949.40474 2606506.30310 255 0 0
-4145860.98700 4103024.79053 2606462.32331 255 0 0
-4145953.62976 4102881.27431 2606543.10339 255 0 0
-4146010.11222 4102821.16584 2606571.99825 255 0 0
-4146062.52673 4102742.69857 2606592.82499 255 0 0
-4146189.85875 4102602.04661 2606643.23888 255 0 0
-4146126.03829 4102670.38744 2606617.68999 255 0 0
-4146231.73638 4102524.22417 2606668.73813 255 0 0
-4146269.20251 4102455.46240 2606709.00157 255 0 0
-4146324.46673 4102397.36746 2606745.58056 255 0 0
-4146356.43366 4102322.50713 2606772.47802 255 0 0
-4146410.67729 4102251.70414 2606802.35322 255 0 0
-4146450.32520 4102178.25609 2606842.57022 255 0 0
-4146487.53356 4102102.95849 2606881.72840 255 0 0
-4146546.93427 4102008.87345 2606932.44890 255 0 0
-4146598.95288 4101943.05395 2606962.34841 255 0 0
-4146643.40920 4101889.04980 2606985.85091 255 0 0
-4146698.54642 4101831.06312 2607001.62662 255 0 0
-4146767.18538 4101776.38479 2607017.53806 255 0 0
-4146847.17962 4101725.92864 2607033.68927 255 0 0
-4146944.37602 4101673.00765 2607018.99790 255 0 0
-4147057.26780 4101609.99756 2606991.78237 255 0 0
-4147152.67780 4101538.16575 2606969.81212 255 0 0
-4147246.67497 4101470.51299 2606951.85910 255 0 0
-4147322.61374 4101395.42229 2606942.52246 255 0 0
-4147395.14445 4101306.72486 2606942.38416 255 0 0
-4147563.37973 4101151.34049 2606918.51619 255 0 0
-4147479.64843 4101229.24252 2606933.82638 255 0 0
-4147650.51400 4101078.23677 2606901.16728 255 0 0
-4147732.11446 4100999.27384 2606885.55952 255 0 0
-4147821.33592 4100927.71116 2606871.34966 255 0 0
-4147908.25597 4100864.59276 2606853.37726 255 0 0
-4148000.15965 4100794.53211 2606829.08493 255 0 0
-4148097.49714 4100721.32078 2606800.82981 255 0 0
-4148177.61716 4100645.00156 2606775.29140 255 0 0
-4148263.77738 4100576.65114 2606764.37596 255 0 0
-4148350.49129 4100506.07370 2606738.03864 255 0 0
-4148436.02082 4100430.29690 2606712.53837 255 0 0
-4148509.39056 4100358.78270 2606699.03343 255 0 0
-4148582.32165 4100286.95410 2606685.96672 255 0 0
-4148718.86217 4100140.41839 2606674.93197 255 0 0
-4148654.02944 4100214.42922 2606674.98748 255 0 0
-4148831.10378 4099994.18422 2606706.01294 255 0 0
-4148777.00708 4100062.11146 2606687.50748 255 0 0
-4148876.03572 4099919.85801 2606729.08763 255 0 0
-4148925.03442 4099847.12830 2606756.04594 255 0 0
-4149023.09949 4099701.54869 2606807.39088 255 0 0
-4148968.76197 4099771.23765 2606783.19720 255 0 0
-4149076.19037 4099628.11699 2606825.58494 255 0 0
-4149242.32543 4099411.09439 2606862.65015 255 0 0
-4149190.49549 4099487.58750 2606847.23741 255 0 0
-4149134.62702 4099558.48124 2606836.13968 255 0 0
-4149296.89114 4099336.33716 2606880.31201 255 0 0
-4149350.43604 4099263.18787 2606895.99988 255 0 0
-4149477.11877 4099125.23022 2606907.16851 255 0 0
-4149415.68798 4099195.21012 2606903.37295 255 0 0
-4149535.64146 4099053.45384 2606910.52674 255 0 0
-4149603.28892 4098984.89761 2606912.67483 255 0 0
-4149660.79648 4098911.96413 2606918.22992 255 0 0
-4149717.58176 4098835.00309 2606932.50885 255 0 0
-4149778.72292 4098763.29240 2606936.71126 255 0 0
-4149911.42828 4098623.68812 2606926.39487 255 0 0
-4149849.21076 4098695.50294 2606934.16060 255 0 0
-4149979.13580 4098555.91682 2606922.34071 255 0 0
-4150042.09064 4098485.13343 2606923.77736 255 0 0
-4150107.78155 4098414.66534 2606924.44023 255 0 0
-4150171.96139 4098342.70789 2606921.35575 255 0 0
-4150239.13850 4098274.25824 2606921.23598 255 0 0
-4150303.60487 4098205.79656 2606922.90553 255 0 0
-4150365.40669 4098133.57163 2606921.52012 255 0 0
-4150428.33961 4098067.30314 2606919.53398 255 0 0
-4150491.98911 4097994.65672 2606918.14721 255 0 0
-4150560.69795 4097925.85698 2606914.33413 255 0 0
-4150630.16762 4097857.45935 2606906.72756 255 0 0
-4150696.82354 4097787.46446 2606896.38041 255 0 0
-4150769.72355 4097720.38360 2606885.64243 255 0 0
-4150835.62400 4097651.11521 2606879.04121 255 0 0
-4150975.05490 4097509.62502 2606865.82476 255 0 0
-4150910.64494 4097584.01962 2606871.14869 255 0 0
-4151042.06995 4097440.52906 2606852.26606 255 0 0
-4151184.51218 4097307.43098 2606828.71049 255 0 0
-4151116.15980 4097378.60337 2606838.86391 255 0 0
-4151255.25715 4097242.69074 2606818.03544 255 0 0
-4151325.14003 4097175.30511 2606806.79927 255 0 0
-4151534.13085 4096976.32353 2606764.41136 255 0 0
-4151464.60746 4097040.49835 2606783.02858 255 0 0
-4151394.89048 4097106.76125 2606795.75756 255 0 0
-4151605.34356 4096908.79772 2606743.88353 255 0 0
-4151822.25030 4096714.70447 2606697.42683 255 0 0
-4151748.05318 4096781.31155 2606715.27562 255 0 0
-4151679.36156 4096842.75961 2606732.25148 255 0 0
-4151892.99798 4096647.88348 2606677.24612 255 0 0
-4152111.95340 4096458.94929 2606611.73504 255 0 0
-4151963.63431 4096581.22165 2606657.71761 255 0 0
-4152039.58959 4096520.63137 2606634.23451 255 0 0
-4152186.05341 4096395.24248 2606588.61596 255 0 0
-4152333.76543 4096274.26182 2606539.53179 255 0 0
-4152407.22299 4096210.03187 2606519.16351 255 0 0
-4152261.40260 4096336.12727 2606562.69496 255 0 0
-4152477.37884 4096146.43431 2606496.62496 255 0 0
-4152554.46146 4096089.01366 2606471.44506 255 0 0
-4152623.70020 4096024.98565 2606447.07552 255 0 0
-4152698.53467 4095965.85111 2606420.79930 255 0 0
-4152773.95276 4095906.91000 2606390.49316 255 0 0
-4153001.69599 4095726.91578 2606303.64219 255 0 0
-4152846.49009 4095846.18132 2606361.47503 255 0 0
-4152924.69876 4095788.06536 2606332.28033 255 0 0
-4153076.84386 4095668.78668 2606272.75047 255 0 0
-4153299.35249 4095479.93916 2606195.35895 255 0 0
-4153222.13294 4095540.94134 2606220.69571 255 0 0
-4153149.27691 4095606.34314 2606247.08805 255 0 0
-4153373.32334 4095420.02398 2606162.23309 255 0 0
-4153528.23924 4095317.89197 2606085.63431 255 0 0
-4153603.95043 4095267.97239 2606042.08363 255 0 0
-4153451.07913 4095369.63724 2606125.42722 255 0 0
-4153679.22264 4095211.70485 2606000.84056 255 0 0
-4158978.16132 4092664.29812 2601771.86046 255 0 0
-4159054.25598 4092647.79237 2601690.03005 255 0 0
-4159124.82413 4092634.52445 2601603.60300 255 0 0
-4159192.01814 4092624.92034 2601518.71905 255 0 0
-4159263.88778 4092618.11052 2601434.11568 255 0 0
-4159338.88051 4092608.05076 2601347.19676 255 0 0
-4159411.83226 4092590.77217 2601259.83334 255 0 0
-4159483.39671 4092568.52133 2601176.78857 255 0 0
-4159556.49628 4092562.04299 2601088.47597 255 0 0
-4159696.53010 4092543.69434 2600907.37259 255 0 0
-4159626.98137 4092553.34369 2600997.94532 255 0 0
-4159761.77353 4092541.09791 2600817.55501 255 0 0
-4159830.13768 4092541.28931 2600725.73137 255 0 0
-4159895.34325 4092544.59018 2600632.92471 255 0 0
-4159956.83193 4092544.56883 2600536.33061 255 0 0
-4160023.64943 4092549.75537 2600438.93398 255 0 0
-4160096.48259 4092548.81781 2600348.95252 255 0 0
-4160162.17686 4092532.73966 2600257.08246 255 0 0
-4160235.99865 4092520.35940 2600169.12897 255 0 0
-4160300.26690 4092510.89775 2600082.91151 255 0 0
-4160367.07696 4092507.85350 2599990.45816 255 0 0
-4160426.11509 4092516.45466 2599892.91618 255 0 0
-4160483.90847 4092522.55877 2599793.73000 255 0 0
-4160550.53001 4092528.58625 2599693.65834 255 0 0
-4160615.49113 4092531.64821 2599598.63049 255 0 0
-4160683.57322 4092522.97768 2599504.62111 255 0 0
-4160750.56353 4092519.75560 2599409.76322 255 0 0
-4160814.74179 4092528.17784 2599311.48987 255 0 0
-4160870.53395 4092538.00462 2599211.61550 255 0 0
-4160929.66068 4092546.68398 2599109.56208 255 0 0
-4161884.50453 4092775.04453 2597353.64110 255 0 0
-4161945.65212 4092790.68674 2597249.93421 255 0 0
-4161995.79577 4092804.22872 2597145.11440 255 0 0
-4162046.50598 4092825.37072 2597036.84701 255 0 0
-4162144.06654 4092873.52927 2596823.78078 255 0 0
-4162093.90497 4092849.25380 2596929.50783 255 0 0
-4162187.36565 4092892.60180 2596721.04789 255 0 0
-4162235.72019 4092921.33971 2596611.51746 255 0 0
-4162327.28051 4092969.70018 2596394.50497 255 0 0
-4162282.44362 4092946.18294 2596505.95797 255 0 0
-4162369.94713 4093004.89113 2596287.99771 255 0 0
-4162408.19061 4093036.92877 2596180.75344 255 0 0
-4162503.21053 4093096.62525 2595962.23328 255 0 0
-4161828.81897 4092764.11373 2597456.01973 255 0 0
-4161778.58099 4092741.73276 2597564.47122 255 0 0
-4161730.78090 4092715.25843 2597672.45127 255 0 0
-4161680.38680 4092701.94500 2597777.92682 255 0 0
-4161624.47842 4092685.58502 2597881.13043 255 0 0
-4161565.16757 4092682.31017 2597983.63961 255 0 0
-4161504.23370 4092669.78688 2598085.88395 255 0 0
-4161442.99780 4092654.67504 2598189.41760 255 0 0
-4161390.62519 4092645.03127 2598290.85861 255 0 0
-4161332.64468 4092628.54171 2598391.17495 255 0 0
-4161275.29164 4092611.79845 2598495.57132 255 0 0
-4161221.21977 4092594.53759 2598602.35837 255 0 0
-4161110.94553 4092568.04704 2598806.17863 255 0 0
-4161168.23738 4092580.21254 2598703.52125 255 0 0
-4161050.19116 4092560.40008 2598910.25907 255 0 0
-4160988.02566 4092552.79766 2599007.10473 255 0 0
-4158898.60165 4092682.93978 2601854.03255 255 0 0
-4158821.04752 4092708.33191 2601931.63238 255 0 0
-4158749.75911 4092718.61630 2602021.35850 255 0 0
-4158675.18016 4092723.01967 2602106.51870 255 0 0
-4158533.55485 4092756.21558 2602269.89639 255 0 0
-4158609.34288 4092739.83476 2602189.10641 255 0 0
-4158456.56710 4092779.44404 2602343.84055 255 0 0
-4158379.34961 4092807.46038 2602420.00345 255 0 0
-4158299.80550 4092834.62668 2602496.85286 255 0 0
-4158225.44229 4092854.72905 2602578.01475 255 0 0
-4158153.63643 4092865.48878 2602663.05224 255 0 0
-4158079.25931 4092883.55312 2602742.05988 255 0 0
-4158002.14252 4092911.29152 2602816.95854 255 0 0
-4157925.59243 4092941.18460 2602890.08651 255 0 0
-4157847.61855 4092967.74226 2602961.84453 255 0 0
-4157772.63432 4092997.92386 2603033.59991 255 0 0
-4157700.25830 4093012.18200 2603112.02917 255 0 0
-4157622.19491 4093030.03700 2603192.46618 255 0 0
-4157549.86051 4093056.33291 2603269.59179 255 0 0
-4157470.99652 4093080.99554 2603345.39366 255 0 0
-4157395.54718 4093113.90538 2603416.48862 255 0 0
-4157233.10483 4093197.61618 2603544.77258 255 0 0
-4157314.64416 4093157.57216 2603478.53249 255 0 0
-4157154.31475 4093237.55862 2603604.74855 255 0 0
-4157076.29349 4093269.73900 2603666.88443 255 0 0
-4156925.24236 4093318.62991 2603812.21237 255 0 0
-4156998.32316 4093299.83307 2603735.10209 255 0 0
-4156854.01505 4093341.68085 2603890.31811 255 0 0
-4156773.37777 4093368.82521 2603956.84917 255 0 0
-4156618.64507 4093445.45229 2604081.89218 255 0 0
-4156694.47698 4093406.26172 2604017.22347 255 0 0
-4156539.43567 4093469.81024 2604156.75157 255 0 0
-4156462.61223 4093503.86666 2604227.93032 255 0 0
-4156307.55723 4093587.59520 2604346.69029 255 0 0
-4156387.44984 4093546.96077 2604290.89175 255 0 0
-4156226.29764 4093630.21709 2604401.77218 255 0 0
-4156148.84494 4093672.14365 2604464.14212 255 0 0
-4156072.13763 4093714.30016 2604524.73130 255 0 0
-4155993.63489 4093753.13707 2604582.39908 255 0 0
-4155913.54679 4093799.88424 2604637.35888 255 0 0
-4155834.09867 4093835.07506 2604696.98210 255 0 0
-4155759.42089 4093881.44545 2604754.18438 255 0 0
-4155679.69308 4093917.93153 2604813.80715 255 0 0
-4155603.13574 4093965.84894 2604866.77243 255 0 0
-4155526.52830 4094016.01568 2604912.53107 255 0 0
-4155449.90139 4094064.61186 2604960.76860 255 0 0
-4155369.61516 4094109.53336 2605009.34073 255 0 0
-4155300.09291 4094146.53781 2605065.32371 255 0 0
-4155220.63533 4094188.32805 2605120.82201 255 0 0
-4155141.98906 4094237.89982 2605168.32092 255 0 0
-4155067.47040 4094288.23395 2605218.35564 255 0 0
-4154986.26156 4094333.60490 2605270.61301 255 0 0
-4154913.10261 4094371.05666 2605332.49080 255 0 0
-4154835.13958 4094416.86674 2605381.87974 255 0 0
-4154753.59225 4094464.09353 2605424.77883 255 0 0
-4154679.94739 4094523.98085 2605465.99759 255 0 0
-4154603.92376 4094579.32347 2605507.87613 255 0 0
-4154524.18739 4094625.02989 2605552.40049 255 0 0
-4154446.65722 4094674.57784 2605603.07481 255 0 0
-4154368.10138 4094722.38139 2605653.74933 255 0 0
-4154292.16039 4094767.45505 2605700.39238 255 0 0
-4154216.73616 4094822.73339 2605739.67319 255 0 0
-4154139.97942 4094880.22228 2605772.73807 255 0 0
-4154065.80627 4094940.69688 2605803.73352 255 0 0
-4153985.66074 4094988.69275 2605845.83170 255 0 0
-4153910.19116 4095041.73905 2605892.52336 255 0 0
-4153831.30197 4095092.32359 2605935.40458 255 0 0
-4153755.00736 4095154.76765 2605967.17963 255 0 0
-4145178.40049 4104146.33770 2605912.33803 255 0 0
-4145133.65491 4104221.44988 2605881.08094 255 0 0
-4145082.89831 4104298.37153 2605849.18933 255 0 0
-4145039.85910 4104373.78952 2605817.17640 255 0 0
-4144902.39569 4104589.29856 2605703.33259 255 0 0
-4144987.92819 4104444.74347 2605781.66354 255 0 0
-4149762.48825 4114383.92779 2584766.95027 255 0 0
-4144941.48480 4104516.91150 2605741.54597 255 0 0
-4149848.11520 4114335.22350 2584698.69790 255 0 0
-4144858.24502 4104668.31897 2605663.40330 255 0 0
-4149929.76603 4114287.15434 2584627.03792 255 0 0
-4144811.51672 4104739.43824 2605628.75776 255 0 0
-4150014.61766 4114239.83477 2584554.53014 255 0 0
-4144767.99374 4104816.51024 2605593.48372 255 0 0
-4150103.56132 4114186.79412 2584493.21200 255 0 0
-4144723.43105 4104894.60742 2605559.60343 255 0 0
-4150190.02061 4114130.23349 2584427.13520 255 0 0
-4144666.89591 4104962.41707 2605523.67471 255 0 0
-4150369.23304 4114018.14354 2584302.55631 255 0 0
-4144617.01035 4105035.52587 2605496.48128 255 0 0
-4150279.79146 4114073.35469 2584362.23345 255 0 0
-4144556.16564 4105104.92774 2605466.26755 255 0 0
-4150458.93474 4113964.27655 2584233.32064 255 0 0
-4144506.53437 4105179.66202 2605435.77239 255 0 0
-4150548.55880 4113905.94958 2584168.76346 255 0 0
-4144467.26623 4105260.56305 2605407.01341 255 0 0
-4150639.88892 4113846.15836 2584107.30780 255 0 0
-4144423.64271 4105333.78158 2605366.76651 255 0 0
-4150730.51938 4113785.85511 2584048.71782 255 0 0
-4144387.03617 4105409.24918 2605319.26516 255 0 0
-4150816.95519 4113727.67111 2583985.24383 255 0 0
-4144348.81690 4105486.84307 2605279.15440 255 0 0
-4150901.45739 4113672.00827 2583922.61004 255 0 0
-4144293.32963 4105555.84880 2605242.80252 255 0 0
-4150989.27848 4113615.82279 2583858.67098 255 0 0
-4144182.79258 4105700.05000 2605195.34120 255 0 0
-4151077.11323 4113554.97008 2583804.65248 255 0 0
-4144234.59595 4105625.75797 2605219.90735 255 0 0
-4151167.60572 4113487.78443 2583757.30619 255 0 0
-4144125.52727 4105774.37949 2605163.77458 255 0 0
-4151258.07315 4113419.66382 2583710.91979 255 0 0
-4144072.36589 4105849.10067 2605128.94839 255 0 0
-4151340.91466 4113359.03889 2583655.04424 255 0 0
-4144035.43844 4105925.17303 2605094.44703 255 0 0
-4151427.41004 4113299.52943 2583593.41559 255 0 0
-4143997.22494 4106001.60123 2605046.16611 255 0 0
-4151517.05207 4113239.25496 2583536.03908 255 0 0
-4143964.56445 4106078.05722 2604999.98248 255 0 0
-4151605.64772 4113173.33751 2583481.16626 255 0 0
-4138227.65169 4115811.54698 2599888.48318 255 0 0
-4138182.48659 4115890.67718 2599849.85762 255 0 0
-4138125.05909 4115956.12489 2599820.34613 255 0 0
-4138082.77694 4116030.36507 2599770.04114 255 0 0
-4138050.34139 4116107.81238 2599718.92513 255 0 0
-4138016.45843 4116174.08329 2599675.41529 255 0 0
-4137978.78684 4116249.07807 2599626.29300 255 0 0
-4137938.41627 4116321.17406 2599582.47192 255 0 0
-4137891.12172 4116385.77738 2599538.07566 255 0 0
-4137856.90601 4116466.20803 2599499.81891 255 0 0
-4137808.54084 4116532.06480 2599462.98687 255 0 0
-4137761.95631 4116602.83607 2599435.54595 255 0 0
-4137709.98970 4116676.82395 2599396.81437 255 0 0
-4137657.57370 4116748.43749 2599353.33373 255 0 0
-4137618.30467 4116827.39827 2599317.27532 255 0 0
-4137584.88134 4116899.45412 2599256.21147 255 0 0
-4137550.47912 4116970.45781 2599210.36053 255 0 0
-4137507.36911 4117043.88978 2599171.98285 255 0 0
-4137470.00722 4117112.16344 2599121.40094 255 0 0
-4137443.32149 4117191.80350 2599068.12915 255 0 0
-4137400.74693 4117259.90649 2599029.50127 255 0 0
-4137348.00428 4117329.04824 2598989.93825 255 0 0
-4137311.13359 4117402.85758 2598952.66695 255 0 0
-4137279.60572 4117477.86807 2598894.97110 255 0 0
-4137246.39804 4117549.24381 2598838.36090 255 0 0
-4137219.21714 4117628.99895 2598781.86218 255 0 0
-4137180.52780 4117691.76761 2598745.47592 255 0 0
-4137140.24080 4117759.26015 2598696.07383 255 0 0
-4137103.41885 4117838.17559 2598640.08067 255 0 0
-4137070.18467 4117913.40642 2598589.02549 255 0 0
-4137040.75898 4117982.36370 2598547.74393 255 0 0
-4137006.41944 4118051.21386 2598502.34185 255 0 0
-4136952.94446 4118118.43905 2598453.66359 255 0 0
-4136913.03731 4118189.62636 2598415.02003 255 0 0
-4136872.88903 4118263.25913 2598381.16821 255 0 0
-4136822.72283 4118335.36499 2598357.45810 255 0 0
-4136760.68597 4118403.05204 2598323.27748 255 0 0
-4136702.75281 4118465.58038 2598293.60030 255 0 0
-4136660.18132 4118540.93759 2598255.83115 255 0 0
-4136615.02837 4118610.87169 2598211.08112 255 0 0
-4136587.97069 4118681.49199 2598165.43045 255 0 0
-4136555.69447 4118750.46720 2598120.85612 255 0 0
-4136519.65861 4118819.75847 2598068.93896 255 0 0
-4136475.53234 4118886.16655 2598028.43809 255 0 0
-4136420.31811 4119031.50488 2597917.58766 255 0 0
-4136453.08274 4118961.78606 2597975.97071 255 0 0
-4136387.16796 4119103.22645 2597871.33664 255 0 0
-4136349.38040 4119169.53636 2597825.17084 255 0 0
-4136319.00887 4119242.98032 2597780.24559 255 0 0
-4136282.14564 4119310.63713 2597735.16543 255 0 0
-4136248.87416 4119383.60334 2597674.20934 255 0 0
-4136217.32269 4119455.57813 2597622.44943 255 0 0
-4136180.99248 4119532.60183 2597579.93409 255 0 0
-4136090.10834 4119672.72621 2597498.67783 255 0 0
-4136135.26266 4119601.81208 2597542.94695 255 0 0
-4136044.34142 4119736.52473 2597468.00144 255 0 0
-4135997.00944 4119809.69767 2597435.76734 255 0 0
-4135948.90013 4119878.19519 2597388.29171 255 0 0
-4135903.51596 4119947.11900 2597355.88274 255 0 0
-4135873.84213 4120016.04213 2597303.46654 255 0 0
-4135845.62313 4120087.60289 2597247.56101 255 0 0
-4135756.96255 4120220.80539 2597168.33955 255 0 0
-4135805.60951 4120152.06981 2597208.02606 255 0 0
-4135719.52034 4120295.03584 2597127.09645 255 0 0
-4135676.10002 4120364.78421 2597091.93768 255 0 0
-4135629.02264 4120432.48497 2597057.40263 255 0 0
-4135585.52868 4120497.84352 2597014.52322 255 0 0
-4135556.96173 4120573.69313 2596961.25179 255 0 0
-4134399.37529 4122769.28693 2595461.48295 255 0 0
-4134439.42816 4122705.78975 2595510.40348 255 0 0
-4134364.92489 4122839.77479 2595404.93906 255 0 0
-4134337.03214 4122905.89900 2595363.02247 255 0 0
-4134304.65084 4122976.13916 2595322.72693 255 0 0
-4134260.88492 4123045.82547 2595284.17422 255 0 0
-4134219.14072 4123112.85689 2595251.39173 255 0 0
-4134173.96932 4123183.39346 2595207.67080 255 0 0
-4134130.85344 4123251.15056 2595178.88656 255 0 0
-4134080.95131 4123315.89060 2595139.81313 255 0 0
-4134035.71294 4123383.53587 2595090.71577 255 0 0
-4134002.33092 4123451.03844 2595038.42732 255 0 0
-4133975.30303 4123515.04075 2594992.58222 255 0 0
-4133948.64147 4123582.85330 2594940.49569 255 0 0
-4133872.94692 4123715.85581 2594858.05247 255 0 0
-4133910.23062 4123648.42507 2594900.42562 255 0 0
-4133407.17318 4124583.62494 2594262.36733 255 0 0
-4133522.78683 4124393.72304 2594379.39196 255 0 0
-4133482.56810 4124456.83654 2594340.57433 255 0 0
-4133447.65236 4124523.39620 2594305.07234 255 0 0
-4133565.84506 4124322.38604 2594431.99744 255 0 0
-4133602.54420 4124253.06407 2594470.01217 255 0 0
-4133661.76201 4124120.83211 2594569.20374 255 0 0
-4133633.33981 4124186.39125 2594517.68066 255 0 0
-4133695.93864 4124053.67141 2594624.23102 255 0 0
-4133767.46733 4123923.26663 2594712.77724 255 0 0
-4133733.71870 4123988.21510 2594665.55860 255 0 0
-4133796.98972 4123852.13276 2594756.60628 255 0 0
-4133834.92460 4123785.56371 2594809.89657 255 0 0
-4134483.15275 4122640.28043 2595543.05701 255 0 0
-4134521.46446 4122573.12831 2595587.65008 255 0 0
-4134623.79407 4122365.66481 2595728.12814 255 0 0
-4134555.26385 4122505.64939 2595639.38254 255 0 0
-4134589.03415 4122433.54444 2595683.23488 255 0 0
-4134668.37108 4122302.98737 2595765.82957 255 0 0
-4134708.79869 4122235.15562 2595807.11334 255 0 0
-4134737.09670 4122161.96723 2595856.50684 255 0 0
-4134775.36148 4122096.68870 2595900.70136 255 0 0
-4134810.44012 4122032.30338 2595947.38795 255 0 0
-4134839.76919 4121961.51538 2596004.65933 255 0 0
-4134884.74959 4121893.31500 2596042.00342 255 0 0
-4134930.90695 4121821.92988 2596081.57741 255 0 0
-4134976.66579 4121753.65224 2596119.94617 255 0 0
-4135010.18804 4121685.50835 2596159.22683 255 0 0
-4135043.43627 4121614.91179 2596206.67534 255 0 0
-4135113.47142 4121473.17358 2596315.83948 255 0 0
-4135076.22837 4121546.42457 2596259.62673 255 0 0
-4135145.52091 4121405.54615 2596364.39632 255 0 0
-4135173.52748 4121329.93440 2596414.71448 255 0 0
-4135220.67578 4121265.47530 2596462.04594 255 0 0
-4135252.66469 4121196.34418 2596503.50252 255 0 0
-4135283.35055 4121125.84899 2596557.69566 255 0 0
-4135313.59763 4121055.22866 2596615.40487 255 0 0
-4135344.75192 4120989.87708 2596667.97435 255 0 0
-4135365.22142 4120914.47641 2596721.37587 255 0 0
-4135402.27269 4120840.75283 2596786.06941 255 0 0
-4135482.83842 4120706.62296 2596887.18819 255 0 0
-4135446.31595 4120778.76815 2596845.03496 255 0 0
-4135521.84920 4120639.79453 2596922.28915 255 0 0
-4138269.57297 4115739.11983 2599933.11472 255 0 0
-4138309.27261 4115669.10322 2599983.80242 255 0 0
-4138351.59363 4115596.78749 2600028.91139 255 0 0
-4138388.88659 4115516.54149 2600072.46450 255 0 0
-4138432.99849 4115446.63251 2600116.18368 255 0 0
-4138463.17741 4115367.96987 2600163.97765 255 0 0
-4138497.34556 4115291.99715 2600210.24180 255 0 0
-4138535.97914 4115218.60956 2600262.56242 255 0 0
-4138574.95905 4115144.28377 2600301.41861 255 0 0
-4138630.60909 4115076.68026 2600336.25734 255 0 0
-4138669.61235 4114998.69222 2600374.48214 255 0 0
-4138709.80224 4114930.59217 2600426.45980 255 0 0
-4138797.18488 4114778.15046 2600511.72304 255 0 0
-4138744.80533 4114850.43541 2600471.20255 255 0 0
-4138896.07989 4114635.44280 2600577.58540 255 0 0
-4138850.18164 4114706.32072 2600549.10492 255 0 0
-4138931.82343 4114559.42265 2600619.40033 255 0 0
-4138962.50699 4114481.09870 2600668.37513 255 0 0
-4139020.58082 4114325.11601 2600787.52254 255 0 0
-4138992.05844 4114400.27248 2600729.69928 255 0 0
-4139058.40852 4114254.13865 2600838.07942 255 0 0
-4139101.18753 4114180.02606 2600869.01907 255 0 0
-4139155.77226 4114111.88978 2600908.89141 255 0 0
-4139195.48415 4114035.78467 2600946.73891 255 0 0
-4139226.51922 4113967.08314 2600999.69309 255 0 0
-4139260.59006 4113886.05552 2601054.62694 255 0 0
-4139302.33117 4113811.82711 2601097.02275 255 0 0
-4139341.29894 4113734.52093 2601133.40561 255 0 0
-4139400.25591 4113668.30000 2601164.13214 255 0 0
-4139452.18906 4113595.15597 2601205.00428 255 0 0
-4139492.70072 4113518.66464 2601246.15504 255 0 0
-4139528.09463 4113444.50898 2601282.65245 255 0 0
-4139562.10005 4113368.49966 2601328.47665 255 0 0
-4139594.61772 4113295.61305 2601379.38586 255 0 0
-4139641.46382 4113223.87201 2601417.24173 255 0 0
-4139699.81978 4113151.85367 2601454.06870 255 0 0
-4139749.57783 4113074.07937 2601490.86959 255 0 0
-4139806.16088 4113006.97272 2601515.84238 255 0 0
-4139853.06555 4112931.46599 2601539.97461 255 0 0
-4139897.06652 4112857.02701 2601575.01068 255 0 0
-4139933.75739 4112779.28463 2601627.16842 255 0 0
-4139971.46272 4112711.64984 2601670.51495 255 0 0
-4140008.17944 4112634.81955 2601709.91590 255 0 0
-4140056.15060 4112566.03880 2601748.22468 255 0 0
-4140133.18689 4112406.71010 2601834.50690 255 0 0
-4140098.19197 4112491.55807 2601788.55320 255 0 0
-4140163.27982 4112327.16895 2601880.42082 255 0 0
-4140205.47797 4112253.56776 2601921.20590 255 0 0
-4140254.80121 4112179.08590 2601956.70739 255 0 0
-4140298.24767 4112101.11090 2601996.24373 255 0 0
-4140347.39097 4112031.35841 2602035.25810 255 0 0
-4140389.55397 4111964.29288 2602076.64262 255 0 0
-4140427.26130 4111883.41601 2602120.40460 255 0 0
-4140465.39892 4111812.04328 2602165.30677 255 0 0
-4140509.30689 4111739.89540 2602207.79008 255 0 0
-4140555.87217 4111666.24041 2602240.73156 255 0 0
-4140604.86157 4111592.97611 2602264.09430 255 0 0
-4140671.47562 4111523.75839 2602292.13898 255 0 0
-4140707.32146 4111446.07954 2602326.30797 255 0 0
-4140750.02289 4111378.63131 2602370.93277 255 0 0
-4140778.90334 4111304.28077 2602421.62192 255 0 0
-4140809.37557 4111223.96203 2602462.71288 255 0 0
-4140907.45815 4111081.48198 2602535.96695 255 0 0
-4140859.52192 4111157.54272 2602501.32969 255 0 0
-4140967.74748 4111018.86510 2602571.31896 255 0 0
-4141010.80042 4110942.20640 2602596.75360 255 0 0
-4141061.82332 4110865.52028 2602629.04962 255 0 0
-4141122.16528 4110796.52160 2602661.16578 255 0 0
-4141172.47793 4110722.33702 2602692.82339 255 0 0
-4141227.75012 4110652.66125 2602717.58244 255 0 0
-4141339.05166 4110501.30530 2602777.42254 255 0 0
-4141289.12201 4110580.93852 2602749.57048 255 0 0
-4141382.96386 4110425.16938 2602819.02225 255 0 0
-4141428.04232 4110346.75125 2602858.44169 255 0 0
-4141473.99010 4110270.81927 2602893.39583 255 0 0
-4141513.04092 4110185.71203 2602933.56329 255 0 0
-4141559.38980 4110118.58042 2602980.57232 255 0 0
-4141583.94848 4110030.67116 2603035.60991 255 0 0
-4141646.37699 4109871.73959 2603143.61099 255 0 0
-4141617.44033 4109951.25951 2603095.12729 255 0 0
-4141673.96685 4109794.16729 2603188.46429 255 0 0
-4141712.27200 4109712.16413 2603232.95195 255 0 0
-4141787.01115 4109565.06943 2603333.59753 255 0 0
-4141751.23200 4109639.23114 2603284.26044 255 0 0
-4141827.47297 4109481.23791 2603364.50485 255 0 0
-4141886.34989 4109413.26638 2603402.33315 255 0 0
-4141983.34584 4109260.44140 2603464.10315 255 0 0
-4141934.42511 4109334.69446 2603440.47924 255 0 0
-4142037.02903 4109186.61901 2603501.31505 255 0 0
-4142068.55040 4109105.46341 2603552.77946 255 0 0
-4142141.89952 4108949.01557 2603635.16915 255 0 0
-4142106.28323 4109027.71220 2603595.53355 255 0 0
-4142185.81402 4108873.53173 2603678.36829 255 0 0
-4142226.56342 4108795.15792 2603721.30680 255 0 0
-4142265.56202 4108718.15954 2603752.84016 255 0 0
-4142321.41688 4108657.66438 2603787.38248 255 0 0
-4142375.88345 4108588.96123 2603812.51200 255 0 0
-4142423.65537 4108509.33858 2603846.32071 255 0 0
-4152054.77581 4112843.20805 2583219.70378 255 0 0
-4143739.61730 4106449.43905 2604816.72072 255 0 0
-4151968.93238 4112905.43189 2583279.14729 255 0 0
-4143885.87435 4106227.85683 2604921.28742 255 0 0
-4151876.07102 4112968.51281 2583336.95871 255 0 0
-4143794.70285 4106377.92207 2604844.70240 255 0 0
-4151790.07289 4113034.30733 2583394.26118 255 0 0
-4143835.14129 4106297.98700 2604881.54437 255 0 0
-4151697.48838 4113105.40368 2583434.85301 255 0 0
-4143926.24151 4106155.49118 2604961.65523 255 0 0
